<mxfile host="app.diagrams.net" modified="2023-11-12T09:06:29.998Z" agent="Mozilla/5.0 (Windows NT 10.0; Win64; x64) AppleWebKit/537.36 (KHTML, like Gecko) Chrome/119.0.0.0 Safari/537.36" etag="TMRJh7IAoiYjIpshZe0h" version="22.1.0" type="device">
  <diagram name="Page-1" id="nAh9Bwq1KAQqnUYPWBFJ">
    <mxGraphModel dx="1185" dy="641" grid="0" gridSize="10" guides="1" tooltips="1" connect="1" arrows="1" fold="1" page="0" pageScale="1" pageWidth="850" pageHeight="1100" math="0" shadow="0">
      <root>
        <mxCell id="0" />
        <mxCell id="1" parent="0" />
        <mxCell id="qFqC4II3o93BazCrs1PA-3" style="edgeStyle=orthogonalEdgeStyle;rounded=0;orthogonalLoop=1;jettySize=auto;html=1;" parent="1" source="qFqC4II3o93BazCrs1PA-1" target="qFqC4II3o93BazCrs1PA-2" edge="1">
          <mxGeometry relative="1" as="geometry" />
        </mxCell>
        <mxCell id="qFqC4II3o93BazCrs1PA-1" value="Actor" style="shape=umlActor;verticalLabelPosition=bottom;verticalAlign=top;html=1;outlineConnect=0;" parent="1" vertex="1">
          <mxGeometry x="260" y="330" width="30" height="60" as="geometry" />
        </mxCell>
        <mxCell id="qFqC4II3o93BazCrs1PA-2" value="browser" style="ellipse;whiteSpace=wrap;html=1;aspect=fixed;" parent="1" vertex="1">
          <mxGeometry x="370" y="300" width="80" height="80" as="geometry" />
        </mxCell>
        <mxCell id="qFqC4II3o93BazCrs1PA-4" value="sales/" style="shape=step;perimeter=stepPerimeter;whiteSpace=wrap;html=1;fixedSize=1;fillColor=#dae8fc;strokeColor=#6c8ebf;" parent="1" vertex="1">
          <mxGeometry x="490" y="300" width="140" height="40" as="geometry" />
        </mxCell>
        <mxCell id="qFqC4II3o93BazCrs1PA-5" value="" style="rounded=1;whiteSpace=wrap;html=1;" parent="1" vertex="1">
          <mxGeometry x="660" y="240" width="350" height="280" as="geometry" />
        </mxCell>
        <mxCell id="qFqC4II3o93BazCrs1PA-6" value="" style="rounded=0;whiteSpace=wrap;html=1;" parent="1" vertex="1">
          <mxGeometry x="690" y="325" width="80" height="30" as="geometry" />
        </mxCell>
        <mxCell id="qFqC4II3o93BazCrs1PA-7" value="" style="rounded=0;whiteSpace=wrap;html=1;" parent="1" vertex="1">
          <mxGeometry x="720" y="380" width="80" height="30" as="geometry" />
        </mxCell>
        <mxCell id="qFqC4II3o93BazCrs1PA-8" value="" style="rounded=0;whiteSpace=wrap;html=1;" parent="1" vertex="1">
          <mxGeometry x="900" y="320" width="80" height="30" as="geometry" />
        </mxCell>
        <mxCell id="qFqC4II3o93BazCrs1PA-9" value="" style="rounded=0;whiteSpace=wrap;html=1;" parent="1" vertex="1">
          <mxGeometry x="795" y="325" width="80" height="30" as="geometry" />
        </mxCell>
        <mxCell id="qFqC4II3o93BazCrs1PA-10" value="" style="rounded=0;whiteSpace=wrap;html=1;" parent="1" vertex="1">
          <mxGeometry x="840" y="380" width="80" height="30" as="geometry" />
        </mxCell>
        <mxCell id="qFqC4II3o93BazCrs1PA-11" value="" style="rounded=0;whiteSpace=wrap;html=1;" parent="1" vertex="1">
          <mxGeometry x="680" y="250" width="310" height="30" as="geometry" />
        </mxCell>
        <mxCell id="qFqC4II3o93BazCrs1PA-12" value="" style="rounded=0;whiteSpace=wrap;html=1;" parent="1" vertex="1">
          <mxGeometry x="690" y="480" width="310" height="30" as="geometry" />
        </mxCell>
        <mxCell id="qFqC4II3o93BazCrs1PA-18" style="edgeStyle=orthogonalEdgeStyle;rounded=0;orthogonalLoop=1;jettySize=auto;html=1;" parent="1" source="qFqC4II3o93BazCrs1PA-17" target="qFqC4II3o93BazCrs1PA-8" edge="1">
          <mxGeometry relative="1" as="geometry" />
        </mxCell>
        <mxCell id="qFqC4II3o93BazCrs1PA-17" value="объявления" style="shape=cylinder3;whiteSpace=wrap;html=1;boundedLbl=1;backgroundOutline=1;size=15;" parent="1" vertex="1">
          <mxGeometry x="1106" y="135" width="60" height="80" as="geometry" />
        </mxCell>
      </root>
    </mxGraphModel>
  </diagram>
</mxfile>
